<svg width="60" height="60" viewBox="0 0 60 60" fill="none" xmlns="http://www.w3.org/2000/svg">
<circle cx="30" cy="30" r="29.3" fill="white" stroke="#EEEEEE" stroke-width="1.4"/>
<path fill-rule="evenodd" clip-rule="evenodd" d="M23.7498 39.5837C25.5907 39.5837 27.0831 41.0761 27.0831 42.917C27.0831 44.758 25.5907 46.2504 23.7498 46.2504C21.9088 46.2504 20.4165 44.758 20.4165 42.917C20.4165 41.0761 21.9088 39.5837 23.7498 39.5837ZM37.0832 39.5837C38.9241 39.5837 40.4165 41.0761 40.4165 42.917C40.4165 44.758 38.9241 46.2504 37.0832 46.2504C35.2422 46.2504 33.7498 44.758 33.7498 42.917C33.7498 41.0761 35.2422 39.5837 37.0832 39.5837ZM23.7498 42.0833C23.2896 42.0833 22.9165 42.4564 22.9165 42.9166C22.9165 43.3769 23.2896 43.75 23.7498 43.75C24.2101 43.75 24.5832 43.3769 24.5832 42.9166C24.5832 42.4564 24.2101 42.0833 23.7498 42.0833ZM37.0832 42.0833C36.6229 42.0833 36.2498 42.4564 36.2498 42.9166C36.2498 43.3769 36.6229 43.75 37.0832 43.75C37.5434 43.75 37.9165 43.3769 37.9165 42.9166C37.9165 42.4564 37.5434 42.0833 37.0832 42.0833ZM19.1665 16.6666C19.6205 16.6666 20.0352 16.9123 20.2551 17.3022L20.3102 17.4121L21.4515 20H42.4998C43.3756 20 43.9682 20.8714 43.676 21.6739L43.6348 21.7738L38.6348 32.6071C38.4475 33.0129 38.0596 33.2849 37.6207 33.3275L37.4998 33.3333H26.0857L24.419 35.8333H38.7498C39.3996 35.8333 39.9335 36.329 39.9941 36.9629L39.9998 37.0833C39.9998 37.733 39.5041 38.267 38.8702 38.3276L38.7498 38.3333H22.0832C21.1218 38.3333 20.534 37.3015 20.9863 36.4833L21.0431 36.3899L23.9957 31.96L18.3515 19.1666H15.4165C14.7668 19.1666 14.2328 18.6709 14.1722 18.037L14.1665 17.9166C14.1665 17.2669 14.6622 16.7329 15.2961 16.6723L15.4165 16.6666H19.1665ZM40.5457 22.5H22.5548L26.2315 30.8333H36.6998L40.5457 22.5Z" fill="#424242"/>
</svg>
